<mxfile host="app.diagrams.net" modified="2023-05-07T23:52:04.106Z" agent="Mozilla/5.0 (Windows NT 10.0; Win64; x64) AppleWebKit/537.36 (KHTML, like Gecko) Chrome/113.0.0.0 Safari/537.36" version="21.2.9" etag="_mAuOvq1TuwwzK0TLbgp" type="github">
  <diagram name="PÃ¡gina-1" id="4P3HH8utBVpDtmv8WdTf">
    <mxGraphModel>
      <root>
        <mxCell id="0" />
        <mxCell id="1" parent="0" />
      </root>
    </mxGraphModel>
  </diagram>
</mxfile>
